<svg version="1.1" id="Layer_1" xmlns="http://www.w3.org/2000/svg" xmlns:xlink="http://www.w3.org/1999/xlink" x="0px" y="0px"
	 width="100%" viewBox="0 0 600 335" enable-background="new 0 0 600 335" xml:space="preserve">
<path fill="#FEFEFE" opacity="1.000000" stroke="none" 
	d="
M393.000000,0.999998 
	C462.315460,1.000000 531.630920,1.000000 600.973145,1.000000 
	C600.973145,112.619987 600.973145,224.239990 600.973145,335.929993 
	C401.098267,335.929993 201.196487,335.929993 1.147361,335.929993 
	C1.147361,224.333450 1.147361,112.666763 1.147361,1.000000 
	C70.101196,1.000000 139.083618,1.000000 208.543671,1.468552 
	C209.021301,53.515400 209.021301,105.093697 209.021301,157.054703 
	C222.559326,157.054703 235.484467,157.054703 249.006165,157.054703 
	C249.006165,166.297516 249.006165,175.173630 249.006165,184.014969 
	C284.879028,184.014969 320.144806,184.014969 355.946442,184.014969 
	C355.946442,174.908997 355.946442,166.023285 355.946442,156.916138 
	C368.279083,156.916138 380.077576,156.916138 392.379578,156.916138 
	C392.379578,154.716583 392.379578,152.747559 392.379578,150.778519 
	C392.379578,102.627769 392.372925,54.477020 392.405670,6.326292 
	C392.406891,4.550726 392.793152,2.775423 393.000000,0.999998 
M117.443100,308.818604 
	C119.441238,308.818573 121.450500,308.683044 123.435280,308.845886 
	C127.975540,309.218414 129.816727,307.218231 129.586868,302.705841 
	C129.366882,298.387451 129.900848,293.998688 129.325211,289.746216 
	C129.097061,288.060822 126.848717,285.428558 125.387390,285.336578 
	C118.140953,284.880371 110.850174,285.128571 103.378761,285.128571 
	C103.378761,287.768494 103.378761,289.867798 103.378761,292.485229 
	C109.630920,292.485229 115.705925,292.485229 121.962631,292.485229 
	C121.962631,295.740387 121.962631,298.474152 121.962631,301.560791 
	C114.885880,301.560791 108.090393,301.522919 101.295647,301.577240 
	C98.039452,301.603271 96.943840,300.004059 97.037292,296.900635 
	C97.182571,292.076141 97.351578,287.223602 96.996956,282.420898 
	C96.643875,277.639038 98.224716,275.883301 103.170921,276.089752 
	C111.757111,276.448090 120.369057,276.189331 128.860870,276.189331 
	C128.860870,273.506897 128.860870,271.436951 128.860870,268.993347 
	C120.239105,268.993347 111.945129,268.988403 103.651184,268.997864 
	C102.153656,268.999573 100.644623,268.953064 99.160767,269.113037 
	C93.533127,269.719696 90.149902,273.248901 89.986282,279.025635 
	C89.811897,285.181824 89.857224,291.347229 89.939041,297.506836 
	C90.036568,304.848755 93.595497,308.529175 100.974663,308.781891 
	C106.130562,308.958405 111.297318,308.817627 117.443100,308.818604 
M277.882294,282.248138 
	C279.355682,289.310608 282.571289,292.211914 289.787842,292.516266 
	C294.771667,292.726410 299.771271,292.540009 304.763214,292.589813 
	C307.754852,292.619690 310.063110,293.592804 310.005798,297.139435 
	C309.948425,300.686340 307.559723,301.496704 304.613770,301.549469 
	C302.950104,301.579254 301.285553,301.559326 299.621399,301.559448 
	C292.511078,301.559998 285.400726,301.559692 278.259003,301.559692 
	C278.259003,304.200806 278.259003,306.293030 278.259003,308.823700 
	C286.965881,308.823700 295.419312,308.885803 303.871399,308.806396 
	C312.483521,308.725525 317.323059,304.297760 317.225739,296.775452 
	C317.133331,289.633514 312.135712,285.217712 303.921448,285.103851 
	C299.096252,285.036957 294.229065,285.422577 289.466156,284.869415 
	C287.845886,284.681244 285.288239,282.213684 285.324249,280.844635 
	C285.365417,279.280640 287.585510,277.365997 289.305023,276.389404 
	C290.571198,275.670319 292.554138,276.198395 294.217743,276.196716 
	C300.645355,276.190155 307.072968,276.194061 313.440369,276.194061 
	C313.440369,273.471558 313.440369,271.413513 313.440369,269.112427 
	C304.958466,269.112427 296.817413,268.810486 288.709900,269.202118 
	C281.415619,269.554474 278.242035,273.495758 277.882294,282.248138 
M218.049637,217.554871 
	C218.049637,224.999817 218.049637,232.444778 218.049637,239.989594 
	C220.716461,239.989594 222.839142,239.989594 225.444107,239.989594 
	C225.444107,230.849503 225.581085,221.892227 225.381165,212.942474 
	C225.292984,208.994568 226.779007,207.558243 230.651382,207.771683 
	C234.801010,208.000381 238.974792,207.746078 243.134689,207.844437 
	C248.513809,207.971603 250.475510,210.101791 250.520126,215.610718 
	C250.563644,220.983032 248.538040,223.158966 243.035583,223.301041 
	C238.245529,223.424698 233.449722,223.326797 228.397125,223.326797 
	C228.397125,225.894409 228.397125,227.958542 228.397125,230.149628 
	C234.730606,230.149628 240.903320,230.632401 246.967270,230.026520 
	C254.423386,229.281525 258.144867,223.595596 257.923737,214.745499 
	C257.725983,206.831223 253.525757,201.495331 246.350235,200.985123 
	C240.059525,200.537827 233.701157,200.534470 227.401352,200.871399 
	C221.567825,201.183380 218.403671,204.804016 218.084229,210.586197 
	C217.974167,212.578201 218.055649,214.580780 218.049637,217.554871 
M214.578598,283.100525 
	C211.541321,281.689667 208.612106,279.524384 205.437881,279.069672 
	C201.920227,278.565796 198.174286,279.969238 194.535599,279.923157 
	C189.096893,279.854279 183.666412,279.223114 178.229736,278.873077 
	C175.285110,278.683502 173.281296,279.858673 173.255035,283.040741 
	C173.185410,291.481384 173.231400,299.922974 173.231400,308.476227 
	C175.951355,308.476227 178.156342,308.476227 180.758240,308.476227 
	C180.758240,300.891693 180.758240,293.640778 180.758240,285.993469 
	C182.950241,285.993469 184.741226,285.987640 186.532181,285.994537 
	C192.798279,286.018707 192.840012,286.054901 192.855423,292.510284 
	C192.868011,297.783142 192.857986,303.056061 192.857986,308.568329 
	C195.494949,308.568329 197.557755,308.568329 200.069122,308.568329 
	C200.069122,300.976990 200.069122,293.580261 200.069122,286.224823 
	C208.971207,285.689636 208.971252,285.689636 208.971451,294.185730 
	C208.971558,298.961182 208.971481,303.736664 208.971481,308.637024 
	C211.639328,308.637024 213.743958,308.637024 216.824753,308.637024 
	C216.198471,300.190582 215.589874,291.982666 214.578598,283.100525 
M415.415955,282.470062 
	C415.304474,281.342834 415.192993,280.215637 415.074158,279.014130 
	C413.860321,278.951324 412.870880,278.859436 411.881134,278.856384 
	C408.718414,278.846558 405.549225,278.744659 402.394196,278.906464 
	C396.113403,279.228485 392.688995,282.723969 392.285797,289.001831 
	C391.426422,302.383728 393.544800,307.207214 400.870697,308.549469 
	C401.034332,308.579468 401.197174,308.639862 401.360687,308.641022 
	C406.349731,308.676117 411.365234,309.036133 416.320282,308.640381 
	C421.016693,308.265320 424.989258,305.699249 425.162537,300.682159 
	C425.556946,289.262177 425.286896,277.819244 425.286896,266.327362 
	C422.851593,266.327362 420.752563,266.327362 418.160675,266.327362 
	C418.160675,273.845856 418.160522,281.130585 418.160706,288.415283 
	C418.161133,303.039368 418.165833,302.991882 403.552094,301.574951 
	C400.855957,301.313568 399.727875,300.213318 399.747559,297.513092 
	C399.850494,283.404419 398.541840,286.290863 410.465271,286.007782 
	C411.629974,285.980103 412.950592,286.326813 413.910736,285.880280 
	C414.647461,285.537689 414.930206,284.218903 415.415955,282.470062 
M347.930298,240.173218 
	C349.430115,240.179688 350.933807,240.118042 352.429169,240.202972 
	C371.282867,241.273743 371.382660,236.456512 371.022308,220.636002 
	C370.892212,214.924789 368.111115,211.251984 362.544708,210.710129 
	C356.987976,210.169250 351.337494,210.591507 345.613037,210.591507 
	C345.613037,212.804474 345.613037,214.835770 345.613037,217.174652 
	C350.475647,217.174652 354.958099,217.272079 359.434021,217.143158 
	C362.878296,217.043945 364.164093,218.540512 364.113190,221.937057 
	C363.915863,235.101089 365.456970,233.172531 353.130219,233.325455 
	C352.130463,233.337860 350.997894,233.629623 350.158234,233.262634 
	C348.439850,232.511581 346.878693,231.400772 345.252808,230.438110 
	C346.821564,229.398911 348.301727,227.679718 349.977448,227.461288 
	C353.523132,226.999115 357.170959,227.320496 360.906494,227.320496 
	C360.906494,224.770004 360.906494,222.812378 360.906494,220.325912 
	C356.770325,220.325912 352.805054,220.189667 348.852661,220.356934 
	C342.467896,220.627151 338.868744,223.804245 338.230408,229.443512 
	C337.611084,234.915070 340.495300,238.406113 347.930298,240.173218 
M146.736084,285.691467 
	C147.568375,285.691528 148.400742,285.683136 149.232925,285.692932 
	C161.604858,285.838562 160.160492,283.836914 160.285614,297.522217 
	C160.315414,300.783478 158.781113,301.971313 155.684509,301.868835 
	C152.359070,301.758789 148.985184,302.154297 145.716232,301.711151 
	C144.141846,301.497711 142.759903,299.864624 141.290833,298.874390 
	C142.705048,297.845062 144.036682,296.102753 145.549820,295.927490 
	C149.270782,295.496521 153.075256,295.786438 156.928009,295.786438 
	C156.928009,293.152893 156.928009,291.114960 156.928009,288.958160 
	C152.254822,288.958160 147.923447,288.773987 143.614258,289.004669 
	C138.214325,289.293793 134.833664,292.928497 134.464828,298.372925 
	C134.126648,303.365082 137.079834,307.232819 142.289368,308.315979 
	C144.221558,308.717773 146.245087,308.704285 148.230377,308.822998 
	C168.091278,310.010376 167.592667,304.049683 167.131622,288.036591 
	C166.992020,283.187927 164.158661,279.854492 159.699036,279.345184 
	C153.695328,278.659546 147.554459,279.175049 141.584412,279.175049 
	C141.584412,281.479126 141.584412,283.384430 141.584412,285.690979 
	C143.209656,285.690979 144.510132,285.690979 146.736084,285.691467 
M233.958359,298.777222 
	C238.277527,298.664093 242.646194,298.918152 246.903229,298.344208 
	C252.137756,297.638397 255.268936,293.308533 255.078293,288.062469 
	C254.901932,283.209076 251.363617,279.546783 246.144623,278.997528 
	C244.165527,278.789246 242.148315,278.973419 240.157318,278.843262 
	C222.722580,277.703339 221.821945,282.855530 222.206635,297.656219 
	C222.392975,304.825012 225.792923,308.407959 232.925674,308.784821 
	C236.866211,308.992981 240.826782,308.822083 244.929199,308.822083 
	C244.929199,306.308685 244.929199,304.227783 244.929199,301.847687 
	C243.155777,301.847687 241.669510,301.849274 240.183228,301.847473 
	C227.724258,301.832153 229.176407,303.216461 229.072235,289.974426 
	C229.049362,287.066071 230.285843,285.648926 233.229248,285.684265 
	C236.726044,285.726166 240.259705,285.398834 243.704758,285.822388 
	C245.254654,286.012909 246.628372,287.636444 248.082031,288.609802 
	C246.672028,289.656433 245.346481,291.430878 243.835373,291.606201 
	C240.076874,292.042328 236.233826,291.749664 231.675125,291.749664 
	C232.204437,294.392059 232.632904,296.530975 233.958359,298.777222 
M504.821960,308.741730 
	C511.937531,306.901184 514.760864,303.450256 514.062439,297.447144 
	C513.371277,291.506470 509.719086,288.743622 502.359039,288.634918 
	C499.700134,288.595642 497.035034,288.715881 494.383606,288.568390 
	C493.474548,288.517792 492.598541,287.872894 491.707458,287.499542 
	C491.769653,287.019623 491.831818,286.539703 491.894012,286.059784 
	C498.169525,286.059784 504.445007,286.059784 510.579712,286.059784 
	C510.579712,283.232452 510.579712,281.290375 510.579712,278.878906 
	C504.580505,278.878906 498.801056,278.731995 493.032776,278.922607 
	C487.860382,279.093536 484.163361,282.775757 484.220062,287.252319 
	C484.278870,291.896667 487.744934,295.350525 492.977356,295.689636 
	C496.122864,295.893494 499.329041,295.465271 502.433014,295.880798 
	C504.031250,296.094788 505.465607,297.533203 506.973999,298.418274 
	C505.430939,299.467285 503.939270,301.318176 502.335541,301.421021 
	C496.593353,301.789246 490.813202,301.565277 485.099701,301.565277 
	C485.099701,304.296539 485.099701,306.491821 485.099701,308.795258 
	C491.653381,308.795258 497.799774,308.795258 504.821960,308.741730 
M262.407867,225.492706 
	C262.421234,226.821884 262.368835,228.155548 262.458893,229.479507 
	C262.957764,236.812561 266.178894,239.936920 273.466339,240.173874 
	C274.960632,240.222473 276.462463,240.107422 277.952820,240.198654 
	C297.842743,241.416077 295.866608,233.783325 295.705383,221.364777 
	C295.609009,213.939835 291.897308,210.494751 284.525208,210.258698 
	C281.868683,210.173615 279.207184,210.237640 276.547974,210.243179 
	C265.559937,210.266022 262.444611,213.427155 262.407867,225.492706 
M456.842194,278.870605 
	C451.741486,279.073700 447.003479,280.869232 446.530487,286.294678 
	C445.922119,293.272919 443.321167,301.083801 450.186890,306.779938 
	C451.487152,307.858673 453.523590,308.431458 455.260345,308.529663 
	C460.061066,308.801056 464.904480,309.001923 469.690674,308.662109 
	C475.038849,308.282410 478.460938,305.251709 478.897308,300.489319 
	C479.304047,296.050568 479.338501,291.505890 478.871887,287.077911 
	C478.341492,282.044647 474.840302,279.164490 469.726074,278.939270 
	C465.745361,278.763977 461.751831,278.881012 456.842194,278.870605 
M362.642761,308.166260 
	C369.114136,308.365875 375.591858,308.780304 382.051605,308.588196 
	C383.381226,308.548615 385.712433,306.286926 385.763611,304.978394 
	C386.099609,296.384705 385.936798,287.771484 385.936798,279.103607 
	C383.380402,279.103607 381.300262,279.103607 378.747681,279.103607 
	C378.747681,286.569183 378.747681,293.819702 378.747681,301.574615 
	C374.654053,301.574615 371.027954,301.670380 367.408905,301.551941 
	C362.119232,301.378845 360.167297,299.505310 360.011475,294.278748 
	C359.863922,289.329041 359.979767,284.371460 359.979767,279.151184 
	C357.452484,279.151184 355.384888,279.151184 352.836060,279.151184 
	C352.836060,284.323761 352.855896,289.438080 352.831085,294.552216 
	C352.799408,301.079987 355.514038,305.738251 362.642761,308.166260 
M329.090210,269.381409 
	C328.756226,272.432495 328.422272,275.483582 328.028442,279.081604 
	C324.979828,279.081604 322.095764,279.081604 319.346741,279.081604 
	C319.346741,281.608246 319.346741,283.549377 319.346741,286.013031 
	C322.451416,286.013031 325.347748,286.013031 328.626892,286.013031 
	C328.626892,293.797638 328.626892,301.056366 328.626892,308.457397 
	C331.225037,308.457397 333.416107,308.457397 336.029449,308.457397 
	C336.029449,300.870941 336.029449,293.635315 336.029449,285.920258 
	C340.333954,285.920258 344.229309,285.920258 348.194855,285.920258 
	C348.194855,283.335846 348.194855,281.250732 348.194855,278.664734 
	C344.023254,278.664734 340.115906,278.664734 335.756805,278.664734 
	C335.756805,275.243896 335.756805,272.326019 335.756805,269.058441 
	C333.497742,269.058441 331.704224,269.058441 329.090210,269.381409 
M242.821396,179.218597 
	C242.821396,173.938202 242.821396,168.657806 242.821396,163.309021 
	C237.380005,163.309021 232.517197,163.309021 227.614288,163.309021 
	C227.614288,170.434677 227.614288,177.169601 227.614288,183.948395 
	C232.816101,183.948395 237.715775,183.948395 242.821381,183.948395 
	C242.821381,182.460831 242.821381,181.302658 242.821396,179.218597 
M320.791229,234.747360 
	C324.752777,239.658875 329.591949,241.717667 336.367554,239.432678 
	C331.110260,233.851837 326.164032,228.601181 321.124115,223.251099 
	C325.871460,219.370682 330.928650,215.237030 335.985840,211.103363 
	C335.820190,210.637039 335.654572,210.170715 335.488922,209.704407 
	C331.708527,210.272156 327.506653,209.996292 324.254272,211.621017 
	C320.179138,213.656738 316.873718,217.240677 313.254089,220.178558 
	C310.423767,222.475784 310.451385,224.801514 313.121857,227.273453 
	C315.565582,229.535492 317.893005,231.923172 320.791229,234.747360 
M361.892548,182.381912 
	C362.472229,183.000168 363.034088,184.133591 363.634399,184.154358 
	C368.040863,184.306854 372.455048,184.236679 376.780884,184.236679 
	C376.780884,176.821365 376.780884,169.992157 376.780884,163.275299 
	C371.657166,163.275299 366.941406,163.275299 361.885010,163.275299 
	C361.885010,169.532288 361.885010,175.466324 361.892548,182.381912 
M301.960938,223.498520 
	C301.960938,228.931168 301.960938,234.363815 301.960938,239.948090 
	C304.594849,239.948090 306.668427,239.948090 308.890930,239.948090 
	C308.890930,225.833130 308.890930,211.939499 308.890930,197.933960 
	C306.585083,197.933960 304.515015,197.933960 301.960938,197.933960 
	C301.960938,206.280426 301.960938,214.389648 301.960938,223.498520 
M377.248444,218.598206 
	C377.248444,225.699463 377.248444,232.800705 377.248444,239.885590 
	C379.980347,239.885590 382.055420,239.885590 384.186340,239.885590 
	C384.186340,229.959274 384.186340,220.341187 384.186340,210.504318 
	C381.896484,210.504318 379.832245,210.504318 377.248474,210.504318 
	C377.248474,213.055801 377.248474,215.346268 377.248444,218.598206 
M436.551147,308.823395 
	C437.640106,308.027466 439.655518,307.254547 439.675964,306.432007 
	C439.901886,297.344910 439.818024,288.250122 439.818024,279.109070 
	C437.127380,279.109070 435.031860,279.109070 432.614868,279.109070 
	C432.614868,288.311646 432.528656,297.270905 432.748932,306.222656 
	C432.770813,307.113159 434.660309,307.957672 436.551147,308.823395 
M383.611664,197.782730 
	C381.562225,197.782730 379.512787,197.782730 377.190460,197.782730 
	C377.307159,200.250641 377.395508,202.119507 377.482635,203.961945 
	C380.073181,203.961945 382.110626,203.961945 384.187561,203.961945 
	C384.187561,201.861755 384.187561,200.081741 383.611664,197.782730 
M437.322723,272.714081 
	C442.113190,271.753845 439.138672,268.621124 439.502441,266.322632 
	C437.043976,266.322632 434.977905,266.322632 432.600708,266.322632 
	C432.926117,269.330841 430.761322,273.332764 437.322723,272.714081 
z"/>
<path fill="#040404" opacity="1.000000" stroke="none" 
	d="
M392.536804,0.999998 
	C392.793152,2.775423 392.406891,4.550726 392.405670,6.326292 
	C392.372925,54.477020 392.379578,102.627769 392.379578,150.778519 
	C392.379578,152.747559 392.379578,154.716583 392.379578,156.916138 
	C380.077576,156.916138 368.279083,156.916138 355.946442,156.916138 
	C355.946442,166.023285 355.946442,174.908997 355.946442,184.014969 
	C320.144806,184.014969 284.879028,184.014969 249.006165,184.014969 
	C249.006165,175.173630 249.006165,166.297516 249.006165,157.054703 
	C235.484467,157.054703 222.559326,157.054703 209.021301,157.054703 
	C209.021301,105.093697 209.021301,53.515400 209.010651,1.468552 
	C212.692902,1.000000 216.385818,1.000000 220.651794,1.456669 
	C221.234406,7.063475 221.174088,12.214952 221.272888,17.363377 
	C221.374390,22.651991 223.533844,25.361366 227.445908,25.389650 
	C231.339859,25.417807 233.525665,22.691273 233.682724,17.408049 
	C233.845291,11.940389 233.898804,6.469485 234.000000,1.000000 
	C237.692902,1.000000 241.385818,1.000000 245.472778,1.464422 
	C245.865479,7.400656 245.817078,12.872996 245.878525,18.344103 
	C245.923080,22.311783 247.520035,25.319883 251.906433,25.291473 
	C256.174591,25.263828 258.004272,22.472954 258.020081,18.409781 
	C258.042664,12.606634 258.009399,6.803271 258.000000,1.000000 
	C261.692902,1.000000 265.385834,1.000000 269.626709,1.461402 
	C270.183655,7.081103 270.129730,12.240494 270.219238,17.397396 
	C270.309784,22.616219 272.569427,25.487610 276.384003,25.479172 
	C280.127563,25.470892 282.245697,22.519510 282.391205,17.303091 
	C282.542877,11.867298 282.792938,6.434249 283.000000,1.000000 
	C286.692902,1.000000 290.385834,1.000000 294.386230,1.446784 
	C294.679565,7.199866 294.658997,12.506157 294.653259,17.812464 
	C294.648773,21.938189 296.015686,25.068014 300.701080,25.321318 
	C304.434631,25.523163 306.754211,22.757572 306.879456,17.910555 
	C307.025024,12.276425 306.968689,6.637081 307.000000,1.000000 
	C310.692902,1.000000 314.385834,1.000000 318.553955,1.468234 
	C319.037628,7.571464 318.889282,13.212616 319.110168,18.839273 
	C319.255432,22.539743 321.101166,25.322859 325.200256,25.287228 
	C329.208679,25.252388 331.197968,22.728016 331.222229,18.864048 
	C331.259644,12.910066 331.084808,6.954750 331.000000,1.000000 
	C335.024536,1.000000 339.049103,1.000000 343.385925,1.447267 
	C343.685944,7.036493 343.605865,12.179430 343.680023,17.320141 
	C343.757843,22.713856 345.812592,25.387009 349.679291,25.406691 
	C353.477661,25.426023 355.786285,22.482504 355.859680,17.413872 
	C355.938873,11.943050 355.955872,6.471329 356.000000,1.000000 
	C359.692902,1.000000 363.385834,1.000000 367.545776,1.468493 
	C368.019928,7.572822 367.912415,13.211954 368.074371,18.843336 
	C368.182800,22.614431 370.023834,25.291485 374.116669,25.298569 
	C378.200836,25.305639 380.092834,22.683043 380.149353,18.877499 
	C380.237823,12.920385 380.063202,6.959365 380.000000,1.000000 
	C384.024536,1.000000 388.049103,1.000000 392.536804,0.999998 
M238.500122,138.571304 
	C286.607697,138.571304 334.715302,138.571304 382.867950,138.571304 
	C382.867950,103.690117 382.867950,69.317505 382.867950,35.000484 
	C327.804260,35.000484 273.072540,35.000484 218.366348,35.000484 
	C218.366348,69.570099 218.366348,103.823761 218.366348,138.571259 
	C224.909393,138.571259 231.204926,138.571259 238.500122,138.571304 
z"/>
<path fill="#F0F0F0" opacity="1.000000" stroke="none" 
	d="
M233.536835,1.000000 
	C233.898804,6.469485 233.845291,11.940389 233.682724,17.408049 
	C233.525665,22.691273 231.339859,25.417807 227.445908,25.389650 
	C223.533844,25.361366 221.374390,22.651991 221.272888,17.363377 
	C221.174088,12.214952 221.234406,7.063475 221.112427,1.456669 
	C225.024551,1.000000 229.049088,1.000000 233.536835,1.000000 
z"/>
<path fill="#F6F6F6" opacity="1.000000" stroke="none" 
	d="
M282.536804,1.000000 
	C282.792938,6.434249 282.542877,11.867298 282.391205,17.303091 
	C282.245697,22.519510 280.127563,25.470892 276.384003,25.479172 
	C272.569427,25.487610 270.309784,22.616219 270.219238,17.397396 
	C270.129730,12.240494 270.183655,7.081103 270.087341,1.461402 
	C274.024536,1.000000 278.049103,1.000000 282.536804,1.000000 
z"/>
<path fill="#F6F6F6" opacity="1.000000" stroke="none" 
	d="
M379.539368,1.000000 
	C380.063202,6.959365 380.237823,12.920385 380.149353,18.877499 
	C380.092834,22.683043 378.200836,25.305639 374.116669,25.298569 
	C370.023834,25.291485 368.182800,22.614431 368.074371,18.843336 
	C367.912415,13.211954 368.019928,7.572822 368.006409,1.468493 
	C371.692902,1.000000 375.385834,1.000000 379.539368,1.000000 
z"/>
<path fill="#F9F9F9" opacity="1.000000" stroke="none" 
	d="
M355.539368,1.000000 
	C355.955872,6.471329 355.938873,11.943050 355.859680,17.413872 
	C355.786285,22.482504 353.477661,25.426023 349.679291,25.406691 
	C345.812592,25.387009 343.757843,22.713856 343.680023,17.320141 
	C343.605865,12.179430 343.685944,7.036493 343.849091,1.447267 
	C347.692902,1.000000 351.385834,1.000000 355.539368,1.000000 
z"/>
<path fill="#FCFCFC" opacity="1.000000" stroke="none" 
	d="
M330.539368,1.000000 
	C331.084808,6.954750 331.259644,12.910066 331.222229,18.864048 
	C331.197968,22.728016 329.208679,25.252388 325.200256,25.287228 
	C321.101166,25.322859 319.255432,22.539743 319.110168,18.839273 
	C318.889282,13.212616 319.037628,7.571464 319.014587,1.468234 
	C322.692902,1.000000 326.385834,1.000000 330.539368,1.000000 
z"/>
<path fill="#F6F6F6" opacity="1.000000" stroke="none" 
	d="
M306.539368,1.000000 
	C306.968689,6.637081 307.025024,12.276425 306.879456,17.910555 
	C306.754211,22.757572 304.434631,25.523163 300.701080,25.321318 
	C296.015686,25.068014 294.648773,21.938189 294.653259,17.812464 
	C294.658997,12.506157 294.679565,7.199866 294.846863,1.446784 
	C298.692902,1.000000 302.385834,1.000000 306.539368,1.000000 
z"/>
<path fill="#F9F9F9" opacity="1.000000" stroke="none" 
	d="
M257.539368,1.000000 
	C258.009399,6.803271 258.042664,12.606634 258.020081,18.409781 
	C258.004272,22.472954 256.174591,25.263828 251.906433,25.291473 
	C247.520035,25.319883 245.923080,22.311783 245.878525,18.344103 
	C245.817078,12.872996 245.865479,7.400656 245.933426,1.464422 
	C249.692917,1.000000 253.385818,1.000000 257.539368,1.000000 
z"/>
<path fill="#0C0C0C" opacity="1.000000" stroke="none" 
	d="
M116.951164,308.818604 
	C111.297318,308.817627 106.130562,308.958405 100.974663,308.781891 
	C93.595497,308.529175 90.036568,304.848755 89.939041,297.506836 
	C89.857224,291.347229 89.811897,285.181824 89.986282,279.025635 
	C90.149902,273.248901 93.533127,269.719696 99.160767,269.113037 
	C100.644623,268.953064 102.153656,268.999573 103.651184,268.997864 
	C111.945129,268.988403 120.239105,268.993347 128.860870,268.993347 
	C128.860870,271.436951 128.860870,273.506897 128.860870,276.189331 
	C120.369057,276.189331 111.757111,276.448090 103.170921,276.089752 
	C98.224716,275.883301 96.643875,277.639038 96.996956,282.420898 
	C97.351578,287.223602 97.182571,292.076141 97.037292,296.900635 
	C96.943840,300.004059 98.039452,301.603271 101.295647,301.577240 
	C108.090393,301.522919 114.885880,301.560791 121.962631,301.560791 
	C121.962631,298.474152 121.962631,295.740387 121.962631,292.485229 
	C115.705925,292.485229 109.630920,292.485229 103.378761,292.485229 
	C103.378761,289.867798 103.378761,287.768494 103.378761,285.128571 
	C110.850174,285.128571 118.140953,284.880371 125.387390,285.336578 
	C126.848717,285.428558 129.097061,288.060822 129.325211,289.746216 
	C129.900848,293.998688 129.366882,298.387451 129.586868,302.705841 
	C129.816727,307.218231 127.975540,309.218414 123.435280,308.845886 
	C121.450500,308.683044 119.441238,308.818573 116.951164,308.818604 
z"/>
<path fill="#0E0E0E" opacity="1.000000" stroke="none" 
	d="
M277.859680,281.822998 
	C278.242035,273.495758 281.415619,269.554474 288.709900,269.202118 
	C296.817413,268.810486 304.958466,269.112427 313.440369,269.112427 
	C313.440369,271.413513 313.440369,273.471558 313.440369,276.194061 
	C307.072968,276.194061 300.645355,276.190155 294.217743,276.196716 
	C292.554138,276.198395 290.571198,275.670319 289.305023,276.389404 
	C287.585510,277.365997 285.365417,279.280640 285.324249,280.844635 
	C285.288239,282.213684 287.845886,284.681244 289.466156,284.869415 
	C294.229065,285.422577 299.096252,285.036957 303.921448,285.103851 
	C312.135712,285.217712 317.133331,289.633514 317.225739,296.775452 
	C317.323059,304.297760 312.483521,308.725525 303.871399,308.806396 
	C295.419312,308.885803 286.965881,308.823700 278.259003,308.823700 
	C278.259003,306.293030 278.259003,304.200806 278.259003,301.559692 
	C285.400726,301.559692 292.511078,301.559998 299.621399,301.559448 
	C301.285553,301.559326 302.950104,301.579254 304.613770,301.549469 
	C307.559723,301.496704 309.948425,300.686340 310.005798,297.139435 
	C310.063110,293.592804 307.754852,292.619690 304.763214,292.589813 
	C299.771271,292.540009 294.771667,292.726410 289.787842,292.516266 
	C282.571289,292.211914 279.355682,289.310608 277.859680,281.822998 
z"/>
<path fill="#0D0D0D" opacity="1.000000" stroke="none" 
	d="
M218.049637,217.066711 
	C218.055649,214.580780 217.974167,212.578201 218.084229,210.586197 
	C218.403671,204.804016 221.567825,201.183380 227.401352,200.871399 
	C233.701157,200.534470 240.059525,200.537827 246.350235,200.985123 
	C253.525757,201.495331 257.725983,206.831223 257.923737,214.745499 
	C258.144867,223.595596 254.423386,229.281525 246.967270,230.026520 
	C240.903320,230.632401 234.730606,230.149628 228.397125,230.149628 
	C228.397125,227.958542 228.397125,225.894409 228.397125,223.326797 
	C233.449722,223.326797 238.245529,223.424698 243.035583,223.301041 
	C248.538040,223.158966 250.563644,220.983032 250.520126,215.610718 
	C250.475510,210.101791 248.513809,207.971603 243.134689,207.844437 
	C238.974792,207.746078 234.801010,208.000381 230.651382,207.771683 
	C226.779007,207.558243 225.292984,208.994568 225.381165,212.942474 
	C225.581085,221.892227 225.444107,230.849503 225.444107,239.989594 
	C222.839142,239.989594 220.716461,239.989594 218.049637,239.989594 
	C218.049637,232.444778 218.049637,224.999817 218.049637,217.066711 
z"/>
<path fill="#0D0D0D" opacity="1.000000" stroke="none" 
	d="
M214.779938,283.437653 
	C215.589874,291.982666 216.198471,300.190582 216.824753,308.637024 
	C213.743958,308.637024 211.639328,308.637024 208.971481,308.637024 
	C208.971481,303.736664 208.971558,298.961182 208.971451,294.185730 
	C208.971252,285.689636 208.971207,285.689636 200.069122,286.224823 
	C200.069122,293.580261 200.069122,300.976990 200.069122,308.568329 
	C197.557755,308.568329 195.494949,308.568329 192.857986,308.568329 
	C192.857986,303.056061 192.868011,297.783142 192.855423,292.510284 
	C192.840012,286.054901 192.798279,286.018707 186.532181,285.994537 
	C184.741226,285.987640 182.950241,285.993469 180.758240,285.993469 
	C180.758240,293.640778 180.758240,300.891693 180.758240,308.476227 
	C178.156342,308.476227 175.951355,308.476227 173.231400,308.476227 
	C173.231400,299.922974 173.185410,291.481384 173.255035,283.040741 
	C173.281296,279.858673 175.285110,278.683502 178.229736,278.873077 
	C183.666412,279.223114 189.096893,279.854279 194.535599,279.923157 
	C198.174286,279.969238 201.920227,278.565796 205.437881,279.069672 
	C208.612106,279.524384 211.541321,281.689667 214.779938,283.437653 
z"/>
<path fill="#121212" opacity="1.000000" stroke="none" 
	d="
M415.415405,282.902161 
	C414.930206,284.218903 414.647461,285.537689 413.910736,285.880280 
	C412.950592,286.326813 411.629974,285.980103 410.465271,286.007782 
	C398.541840,286.290863 399.850494,283.404419 399.747559,297.513092 
	C399.727875,300.213318 400.855957,301.313568 403.552094,301.574951 
	C418.165833,302.991882 418.161133,303.039368 418.160706,288.415283 
	C418.160522,281.130585 418.160675,273.845856 418.160675,266.327362 
	C420.752563,266.327362 422.851593,266.327362 425.286896,266.327362 
	C425.286896,277.819244 425.556946,289.262177 425.162537,300.682159 
	C424.989258,305.699249 421.016693,308.265320 416.320282,308.640381 
	C411.365234,309.036133 406.349731,308.676117 401.360687,308.641022 
	C401.197174,308.639862 401.034332,308.579468 400.870697,308.549469 
	C393.544800,307.207214 391.426422,302.383728 392.285797,289.001831 
	C392.688995,282.723969 396.113403,279.228485 402.394196,278.906464 
	C405.549225,278.744659 408.718414,278.846558 411.881134,278.856384 
	C412.870880,278.859436 413.860321,278.951324 415.074158,279.014130 
	C415.192993,280.215637 415.304474,281.342834 415.415405,282.902161 
z"/>
<path fill="#101010" opacity="1.000000" stroke="none" 
	d="
M347.487885,240.143188 
	C340.495300,238.406113 337.611084,234.915070 338.230408,229.443512 
	C338.868744,223.804245 342.467896,220.627151 348.852661,220.356934 
	C352.805054,220.189667 356.770325,220.325912 360.906494,220.325912 
	C360.906494,222.812378 360.906494,224.770004 360.906494,227.320496 
	C357.170959,227.320496 353.523132,226.999115 349.977448,227.461288 
	C348.301727,227.679718 346.821564,229.398911 345.252808,230.438110 
	C346.878693,231.400772 348.439850,232.511581 350.158234,233.262634 
	C350.997894,233.629623 352.130463,233.337860 353.130219,233.325455 
	C365.456970,233.172531 363.915863,235.101089 364.113190,221.937057 
	C364.164093,218.540512 362.878296,217.043945 359.434021,217.143158 
	C354.958099,217.272079 350.475647,217.174652 345.613037,217.174652 
	C345.613037,214.835770 345.613037,212.804474 345.613037,210.591507 
	C351.337494,210.591507 356.987976,210.169250 362.544708,210.710129 
	C368.111115,211.251984 370.892212,214.924789 371.022308,220.636002 
	C371.382660,236.456512 371.282867,241.273743 352.429169,240.202972 
	C350.933807,240.118042 349.430115,240.179688 347.487885,240.143188 
z"/>
<path fill="#0F0F0F" opacity="1.000000" stroke="none" 
	d="
M146.273346,285.691223 
	C144.510132,285.690979 143.209656,285.690979 141.584412,285.690979 
	C141.584412,283.384430 141.584412,281.479126 141.584412,279.175049 
	C147.554459,279.175049 153.695328,278.659546 159.699036,279.345184 
	C164.158661,279.854492 166.992020,283.187927 167.131622,288.036591 
	C167.592667,304.049683 168.091278,310.010376 148.230377,308.822998 
	C146.245087,308.704285 144.221558,308.717773 142.289368,308.315979 
	C137.079834,307.232819 134.126648,303.365082 134.464828,298.372925 
	C134.833664,292.928497 138.214325,289.293793 143.614258,289.004669 
	C147.923447,288.773987 152.254822,288.958160 156.928009,288.958160 
	C156.928009,291.114960 156.928009,293.152893 156.928009,295.786438 
	C153.075256,295.786438 149.270782,295.496521 145.549820,295.927490 
	C144.036682,296.102753 142.705048,297.845062 141.290833,298.874390 
	C142.759903,299.864624 144.141846,301.497711 145.716232,301.711151 
	C148.985184,302.154297 152.359070,301.758789 155.684509,301.868835 
	C158.781113,301.971313 160.315414,300.783478 160.285614,297.522217 
	C160.160492,283.836914 161.604858,285.838562 149.232925,285.692932 
	C148.400742,285.683136 147.568375,285.691528 146.273346,285.691223 
z"/>
<path fill="#0F0F0F" opacity="1.000000" stroke="none" 
	d="
M233.509857,298.723541 
	C232.632904,296.530975 232.204437,294.392059 231.675125,291.749664 
	C236.233826,291.749664 240.076874,292.042328 243.835373,291.606201 
	C245.346481,291.430878 246.672028,289.656433 248.082031,288.609802 
	C246.628372,287.636444 245.254654,286.012909 243.704758,285.822388 
	C240.259705,285.398834 236.726044,285.726166 233.229248,285.684265 
	C230.285843,285.648926 229.049362,287.066071 229.072235,289.974426 
	C229.176407,303.216461 227.724258,301.832153 240.183228,301.847473 
	C241.669510,301.849274 243.155777,301.847687 244.929199,301.847687 
	C244.929199,304.227783 244.929199,306.308685 244.929199,308.822083 
	C240.826782,308.822083 236.866211,308.992981 232.925674,308.784821 
	C225.792923,308.407959 222.392975,304.825012 222.206635,297.656219 
	C221.821945,282.855530 222.722580,277.703339 240.157318,278.843262 
	C242.148315,278.973419 244.165527,278.789246 246.144623,278.997528 
	C251.363617,279.546783 254.901932,283.209076 255.078293,288.062469 
	C255.268936,293.308533 252.137756,297.638397 246.903229,298.344208 
	C242.646194,298.918152 238.277527,298.664093 233.509857,298.723541 
z"/>
<path fill="#0C0C0C" opacity="1.000000" stroke="none" 
	d="
M504.384064,308.768494 
	C497.799774,308.795258 491.653381,308.795258 485.099701,308.795258 
	C485.099701,306.491821 485.099701,304.296539 485.099701,301.565277 
	C490.813202,301.565277 496.593353,301.789246 502.335541,301.421021 
	C503.939270,301.318176 505.430939,299.467285 506.973999,298.418304 
	C505.465607,297.533203 504.031250,296.094788 502.433014,295.880798 
	C499.329041,295.465271 496.122864,295.893494 492.977356,295.689636 
	C487.744934,295.350525 484.278870,291.896667 484.220062,287.252319 
	C484.163361,282.775757 487.860382,279.093536 493.032776,278.922607 
	C498.801056,278.731995 504.580505,278.878906 510.579712,278.878906 
	C510.579712,281.290375 510.579712,283.232452 510.579712,286.059784 
	C504.445007,286.059784 498.169525,286.059784 491.894012,286.059784 
	C491.831818,286.539703 491.769653,287.019623 491.707458,287.499542 
	C492.598541,287.872894 493.474548,288.517792 494.383606,288.568390 
	C497.035034,288.715881 499.700134,288.595642 502.359039,288.634918 
	C509.719086,288.743622 513.371277,291.506470 514.062439,297.447144 
	C514.760864,303.450256 511.937531,306.901184 504.384064,308.768494 
z"/>
<path fill="#0E0E0E" opacity="1.000000" stroke="none" 
	d="
M262.407898,225.038498 
	C262.444611,213.427155 265.559937,210.266022 276.547974,210.243179 
	C279.207184,210.237640 281.868683,210.173615 284.525208,210.258698 
	C291.897308,210.494751 295.609009,213.939835 295.705383,221.364777 
	C295.866608,233.783325 297.842743,241.416077 277.952820,240.198654 
	C276.462463,240.107422 274.960632,240.222473 273.466339,240.173874 
	C266.178894,239.936920 262.957764,236.812561 262.458893,229.479507 
	C262.368835,228.155548 262.421234,226.821884 262.407898,225.038498 
M286.836212,232.835052 
	C287.267883,228.254608 288.036682,223.654404 287.770477,219.114883 
	C287.730194,218.427795 282.880737,217.602325 280.244415,217.560867 
	C269.043457,217.384735 269.120178,217.479446 269.754974,228.935013 
	C269.917969,231.876389 270.974640,233.189484 273.957458,233.099777 
	C277.953125,232.979630 281.954102,233.037918 286.836212,232.835052 
z"/>
<path fill="#0B0B0B" opacity="1.000000" stroke="none" 
	d="
M457.303101,278.869354 
	C461.751831,278.881012 465.745361,278.763977 469.726074,278.939270 
	C474.840302,279.164490 478.341492,282.044647 478.871887,287.077911 
	C479.338501,291.505890 479.304047,296.050568 478.897308,300.489319 
	C478.460938,305.251709 475.038849,308.282410 469.690674,308.662109 
	C464.904480,309.001923 460.061066,308.801056 455.260345,308.529663 
	C453.523590,308.431458 451.487152,307.858673 450.186890,306.779938 
	C443.321167,301.083801 445.922119,293.272919 446.530487,286.294678 
	C447.003479,280.869232 451.741486,279.073700 457.303101,278.869354 
M453.177704,296.182922 
	C452.753052,300.243866 454.505463,301.970398 458.633362,301.662689 
	C461.759674,301.429596 464.956482,301.900208 468.042358,301.477295 
	C469.441040,301.285583 471.515289,299.895172 471.803558,298.693665 
	C474.225677,288.598114 472.101685,285.955170 462.069366,285.961945 
	C452.664124,285.968323 453.138855,285.036163 453.177704,296.182922 
z"/>
<path fill="#090909" opacity="1.000000" stroke="none" 
	d="
M362.247589,308.069336 
	C355.514038,305.738251 352.799408,301.079987 352.831085,294.552216 
	C352.855896,289.438080 352.836060,284.323761 352.836060,279.151184 
	C355.384888,279.151184 357.452484,279.151184 359.979767,279.151184 
	C359.979767,284.371460 359.863922,289.329041 360.011475,294.278748 
	C360.167297,299.505310 362.119232,301.378845 367.408905,301.551941 
	C371.027954,301.670380 374.654053,301.574615 378.747681,301.574615 
	C378.747681,293.819702 378.747681,286.569183 378.747681,279.103607 
	C381.300262,279.103607 383.380402,279.103607 385.936798,279.103607 
	C385.936798,287.771484 386.099609,296.384705 385.763611,304.978394 
	C385.712433,306.286926 383.381226,308.548615 382.051605,308.588196 
	C375.591858,308.780304 369.114136,308.365875 362.247589,308.069336 
z"/>
<path fill="#0C0C0C" opacity="1.000000" stroke="none" 
	d="
M329.500458,269.219910 
	C331.704224,269.058441 333.497742,269.058441 335.756805,269.058441 
	C335.756805,272.326019 335.756805,275.243896 335.756805,278.664734 
	C340.115906,278.664734 344.023254,278.664734 348.194855,278.664734 
	C348.194855,281.250732 348.194855,283.335846 348.194855,285.920258 
	C344.229309,285.920258 340.333954,285.920258 336.029449,285.920258 
	C336.029449,293.635315 336.029449,300.870941 336.029449,308.457397 
	C333.416107,308.457397 331.225037,308.457397 328.626892,308.457397 
	C328.626892,301.056366 328.626892,293.797638 328.626892,286.013031 
	C325.347748,286.013031 322.451416,286.013031 319.346741,286.013031 
	C319.346741,283.549377 319.346741,281.608246 319.346741,279.081604 
	C322.095764,279.081604 324.979828,279.081604 328.028442,279.081604 
	C328.422272,275.483582 328.756226,272.432495 329.500458,269.219910 
z"/>
<path fill="#0D0D0D" opacity="1.000000" stroke="none" 
	d="
M242.821381,179.681534 
	C242.821381,181.302658 242.821381,182.460831 242.821381,183.948395 
	C237.715775,183.948395 232.816101,183.948395 227.614288,183.948395 
	C227.614288,177.169601 227.614288,170.434677 227.614288,163.309021 
	C232.517197,163.309021 237.380005,163.309021 242.821396,163.309021 
	C242.821396,168.657806 242.821396,173.938202 242.821381,179.681534 
z"/>
<path fill="#101010" opacity="1.000000" stroke="none" 
	d="
M320.531433,234.501434 
	C317.893005,231.923172 315.565582,229.535492 313.121857,227.273453 
	C310.451385,224.801514 310.423767,222.475784 313.254089,220.178558 
	C316.873718,217.240677 320.179138,213.656738 324.254272,211.621017 
	C327.506653,209.996292 331.708527,210.272156 335.488922,209.704407 
	C335.654572,210.170715 335.820190,210.637039 335.985840,211.103363 
	C330.928650,215.237030 325.871460,219.370682 321.124115,223.251099 
	C326.164032,228.601181 331.110260,233.851837 336.367554,239.432678 
	C329.591949,241.717667 324.752777,239.658875 320.531433,234.501434 
z"/>
<path fill="#050505" opacity="1.000000" stroke="none" 
	d="
M361.888794,181.891129 
	C361.885010,175.466324 361.885010,169.532288 361.885010,163.275299 
	C366.941406,163.275299 371.657166,163.275299 376.780884,163.275299 
	C376.780884,169.992157 376.780884,176.821365 376.780884,184.236679 
	C372.455048,184.236679 368.040863,184.306854 363.634399,184.154358 
	C363.034088,184.133591 362.472229,183.000168 361.888794,181.891129 
z"/>
<path fill="#070707" opacity="1.000000" stroke="none" 
	d="
M301.960938,222.998688 
	C301.960938,214.389648 301.960938,206.280426 301.960938,197.933960 
	C304.515015,197.933960 306.585083,197.933960 308.890930,197.933960 
	C308.890930,211.939499 308.890930,225.833130 308.890930,239.948090 
	C306.668427,239.948090 304.594849,239.948090 301.960938,239.948090 
	C301.960938,234.363815 301.960938,228.931168 301.960938,222.998688 
z"/>
<path fill="#101010" opacity="1.000000" stroke="none" 
	d="
M377.248474,218.117462 
	C377.248474,215.346268 377.248474,213.055801 377.248474,210.504318 
	C379.832245,210.504318 381.896484,210.504318 384.186340,210.504318 
	C384.186340,220.341187 384.186340,229.959274 384.186340,239.885590 
	C382.055420,239.885590 379.980347,239.885590 377.248444,239.885590 
	C377.248444,232.800705 377.248444,225.699463 377.248474,218.117462 
z"/>
<path fill="#0E0E0E" opacity="1.000000" stroke="none" 
	d="
M436.117096,308.823486 
	C434.660309,307.957672 432.770813,307.113159 432.748932,306.222656 
	C432.528656,297.270905 432.614868,288.311646 432.614868,279.109070 
	C435.031860,279.109070 437.127380,279.109070 439.818024,279.109070 
	C439.818024,288.250122 439.901886,297.344910 439.675964,306.432007 
	C439.655518,307.254547 437.640106,308.027466 436.117096,308.823486 
z"/>
<path fill="#121212" opacity="1.000000" stroke="none" 
	d="
M383.899597,198.042236 
	C384.187561,200.081741 384.187561,201.861755 384.187561,203.961945 
	C382.110626,203.961945 380.073181,203.961945 377.482635,203.961945 
	C377.395508,202.119507 377.307159,200.250641 377.190460,197.782730 
	C379.512787,197.782730 381.562225,197.782730 383.899597,198.042236 
z"/>
<path fill="#212121" opacity="1.000000" stroke="none" 
	d="
M436.908630,272.716187 
	C430.761322,273.332764 432.926117,269.330841 432.600708,266.322632 
	C434.977905,266.322632 437.043976,266.322632 439.502441,266.322632 
	C439.138672,268.621124 442.113190,271.753845 436.908630,272.716187 
z"/>
<path fill="#EBEBEB" opacity="1.000000" stroke="none" 
	d="
M238.000275,138.571289 
	C231.204926,138.571259 224.909393,138.571259 218.366348,138.571259 
	C218.366348,103.823761 218.366348,69.570099 218.366348,35.000484 
	C273.072540,35.000484 327.804260,35.000484 382.867950,35.000484 
	C382.867950,69.317505 382.867950,103.690117 382.867950,138.571304 
	C334.715302,138.571304 286.607697,138.571304 238.000275,138.571289 
M377.116364,93.500023 
	C377.116364,76.070435 377.116364,58.640846 377.116364,41.173191 
	C325.941132,41.173191 275.403992,41.173191 224.750793,41.173191 
	C224.750793,71.605370 224.750793,101.690872 224.750793,132.030396 
	C275.525513,132.030396 326.074005,132.030396 377.116364,132.030396 
	C377.116364,119.389076 377.116364,106.944557 377.116364,93.500023 
z"/>
<path fill="#F2F2F2" opacity="1.000000" stroke="none" 
	d="
M286.394531,232.927322 
	C281.954102,233.037918 277.953125,232.979630 273.957458,233.099777 
	C270.974640,233.189484 269.917969,231.876389 269.754974,228.935013 
	C269.120178,217.479446 269.043457,217.384735 280.244415,217.560867 
	C282.880737,217.602325 287.730194,218.427795 287.770477,219.114883 
	C288.036682,223.654404 287.267883,228.254608 286.394531,232.927322 
z"/>
<path fill="#F2F2F2" opacity="1.000000" stroke="none" 
	d="
M453.177490,295.738251 
	C453.138855,285.036163 452.664124,285.968323 462.069366,285.961945 
	C472.101685,285.955170 474.225677,288.598114 471.803558,298.693665 
	C471.515289,299.895172 469.441040,301.285583 468.042358,301.477295 
	C464.956482,301.900208 461.759674,301.429596 458.633362,301.662689 
	C454.505463,301.970398 452.753052,300.243866 453.177490,295.738251 
z"/>
<path fill="#030303" opacity="1.000000" stroke="none" 
	d="
M377.116364,94.000031 
	C377.116364,106.944557 377.116364,119.389076 377.116364,132.030396 
	C326.074005,132.030396 275.525513,132.030396 224.750793,132.030396 
	C224.750793,101.690872 224.750793,71.605370 224.750793,41.173191 
	C275.403992,41.173191 325.941132,41.173191 377.116364,41.173191 
	C377.116364,58.640846 377.116364,76.070435 377.116364,94.000031 
M317.938995,86.537102 
	C316.308960,83.861458 313.532501,81.297279 313.259521,78.489708 
	C312.369293,69.333008 305.313690,64.380440 300.407166,56.342224 
	C296.196198,63.315208 291.286163,68.831429 289.357513,75.244293 
	C286.368530,85.182800 278.798889,91.505623 273.312042,99.556625 
	C273.186951,97.342758 273.061829,95.128891 272.923523,92.681702 
	C270.788055,92.825836 269.071045,92.941734 267.584259,93.042084 
	C267.584259,100.615959 267.584259,107.630295 267.584259,114.985649 
	C274.695312,112.967621 281.327301,111.085541 288.124512,109.156570 
	C288.574951,111.066696 288.927338,112.560951 289.242340,113.896667 
	C297.248383,113.896667 304.869598,113.896667 312.699707,113.896667 
	C312.970459,112.237686 313.213196,110.750175 313.474854,109.146851 
	C320.555695,111.152466 327.187775,113.030975 334.200378,115.017265 
	C334.200378,107.294479 334.200378,100.231720 334.200378,93.156418 
	C332.056976,93.156418 330.178223,93.156418 328.336517,93.156418 
	C328.158447,95.568756 328.009644,97.584511 327.794800,100.495049 
	C324.245483,95.492455 321.285065,91.319878 317.938995,86.537102 
z"/>
<path fill="#FAFAFA" opacity="1.000000" stroke="none" 
	d="
M318.131836,86.842201 
	C321.285065,91.319878 324.245483,95.492455 327.794800,100.495049 
	C328.009644,97.584511 328.158447,95.568756 328.336517,93.156418 
	C330.178223,93.156418 332.056976,93.156418 334.200378,93.156418 
	C334.200378,100.231720 334.200378,107.294479 334.200378,115.017265 
	C327.187775,113.030975 320.555695,111.152466 313.474854,109.146851 
	C313.213196,110.750175 312.970459,112.237686 312.699707,113.896667 
	C304.869598,113.896667 297.248383,113.896667 289.242340,113.896667 
	C288.927338,112.560951 288.574951,111.066696 288.124512,109.156570 
	C281.327301,111.085541 274.695312,112.967621 267.584259,114.985649 
	C267.584259,107.630295 267.584259,100.615959 267.584259,93.042084 
	C269.071045,92.941734 270.788055,92.825836 272.923523,92.681702 
	C273.061829,95.128891 273.186951,97.342758 273.312042,99.556625 
	C278.798889,91.505623 286.368530,85.182800 289.357513,75.244293 
	C291.286163,68.831429 296.196198,63.315208 300.407166,56.342224 
	C305.313690,64.380440 312.369293,69.333008 313.259521,78.489708 
	C313.532501,81.297279 316.308960,83.861458 318.131836,86.842201 
z"/>
</svg>